<?xml version='1.0' encoding='UTF-8'?>
<svg width="41mm" height="41mm" version="1.1" viewBox="0 0 41 41" xmlns="http://www.w3.org/2000/svg"><path d="M4,4H5V5H4zM5,4H6V5H5zM6,4H7V5H6zM7,4H8V5H7zM8,4H9V5H8zM9,4H10V5H9zM10,4H11V5H10zM13,4H14V5H13zM15,4H16V5H15zM17,4H18V5H17zM19,4H20V5H19zM20,4H21V5H20zM22,4H23V5H22zM24,4H25V5H24zM25,4H26V5H25zM26,4H27V5H26zM27,4H28V5H27zM29,4H30V5H29zM30,4H31V5H30zM31,4H32V5H31zM32,4H33V5H32zM33,4H34V5H33zM34,4H35V5H34zM35,4H36V5H35zM4,5H5V6H4zM10,5H11V6H10zM13,5H14V6H13zM17,5H18V6H17zM18,5H19V6H18zM21,5H22V6H21zM22,5H23V6H22zM24,5H25V6H24zM27,5H28V6H27zM29,5H30V6H29zM35,5H36V6H35zM4,6H5V7H4zM6,6H7V7H6zM7,6H8V7H7zM8,6H9V7H8zM10,6H11V7H10zM12,6H13V7H12zM13,6H14V7H13zM15,6H16V7H15zM16,6H17V7H16zM18,6H19V7H18zM19,6H20V7H19zM20,6H21V7H20zM21,6H22V7H21zM24,6H25V7H24zM25,6H26V7H25zM26,6H27V7H26zM27,6H28V7H27zM29,6H30V7H29zM31,6H32V7H31zM32,6H33V7H32zM33,6H34V7H33zM35,6H36V7H35zM4,7H5V8H4zM6,7H7V8H6zM7,7H8V8H7zM8,7H9V8H8zM10,7H11V8H10zM13,7H14V8H13zM15,7H16V8H15zM18,7H19V8H18zM19,7H20V8H19zM21,7H22V8H21zM22,7H23V8H22zM24,7H25V8H24zM27,7H28V8H27zM29,7H30V8H29zM31,7H32V8H31zM32,7H33V8H32zM33,7H34V8H33zM35,7H36V8H35zM4,8H5V9H4zM6,8H7V9H6zM7,8H8V9H7zM8,8H9V9H8zM10,8H11V9H10zM12,8H13V9H12zM13,8H14V9H13zM15,8H16V9H15zM17,8H18V9H17zM20,8H21V9H20zM23,8H24V9H23zM24,8H25V9H24zM25,8H26V9H25zM27,8H28V9H27zM29,8H30V9H29zM31,8H32V9H31zM32,8H33V9H32zM33,8H34V9H33zM35,8H36V9H35zM4,9H5V10H4zM10,9H11V10H10zM12,9H13V10H12zM14,9H15V10H14zM15,9H16V10H15zM19,9H20V10H19zM20,9H21V10H20zM23,9H24V10H23zM25,9H26V10H25zM27,9H28V10H27zM29,9H30V10H29zM35,9H36V10H35zM4,10H5V11H4zM5,10H6V11H5zM6,10H7V11H6zM7,10H8V11H7zM8,10H9V11H8zM9,10H10V11H9zM10,10H11V11H10zM12,10H13V11H12zM14,10H15V11H14zM16,10H17V11H16zM18,10H19V11H18zM20,10H21V11H20zM22,10H23V11H22zM24,10H25V11H24zM26,10H27V11H26zM28,10H29V11H28zM29,10H30V11H29zM30,10H31V11H30zM31,10H32V11H31zM32,10H33V11H32zM33,10H34V11H33zM34,10H35V11H34zM35,10H36V11H35zM13,11H14V12H13zM14,11H15V12H14zM17,11H18V12H17zM18,11H19V12H18zM20,11H21V12H20zM21,11H22V12H21zM22,11H23V12H22zM23,11H24V12H23zM25,11H26V12H25zM4,12H5V13H4zM5,12H6V13H5zM6,12H7V13H6zM8,12H9V13H8zM9,12H10V13H9zM10,12H11V13H10zM11,12H12V13H11zM12,12H13V13H12zM13,12H14V13H13zM15,12H16V13H15zM16,12H17V13H16zM18,12H19V13H18zM19,12H20V13H19zM22,12H23V13H22zM23,12H24V13H23zM24,12H25V13H24zM25,12H26V13H25zM26,12H27V13H26zM27,12H28V13H27zM28,12H29V13H28zM30,12H31V13H30zM32,12H33V13H32zM35,12H36V13H35zM4,13H5V14H4zM7,13H8V14H7zM8,13H9V14H8zM12,13H13V14H12zM15,13H16V14H15zM16,13H17V14H16zM18,13H19V14H18zM20,13H21V14H20zM23,13H24V14H23zM24,13H25V14H24zM25,13H26V14H25zM28,13H29V14H28zM29,13H30V14H29zM30,13H31V14H30zM31,13H32V14H31zM32,13H33V14H32zM33,13H34V14H33zM34,13H35V14H34zM4,14H5V15H4zM5,14H6V15H5zM6,14H7V15H6zM7,14H8V15H7zM9,14H10V15H9zM10,14H11V15H10zM11,14H12V15H11zM13,14H14V15H13zM14,14H15V15H14zM16,14H17V15H16zM17,14H18V15H17zM19,14H20V15H19zM21,14H22V15H21zM22,14H23V15H22zM23,14H24V15H23zM25,14H26V15H25zM27,14H28V15H27zM31,14H32V15H31zM32,14H33V15H32zM33,14H34V15H33zM35,14H36V15H35zM5,15H6V16H5zM8,15H9V16H8zM11,15H12V16H11zM12,15H13V16H12zM13,15H14V16H13zM14,15H15V16H14zM15,15H16V16H15zM18,15H19V16H18zM19,15H20V16H19zM21,15H22V16H21zM22,15H23V16H22zM25,15H26V16H25zM26,15H27V16H26zM28,15H29V16H28zM29,15H30V16H29zM30,15H31V16H30zM33,15H34V16H33zM35,15H36V16H35zM4,16H5V17H4zM6,16H7V17H6zM7,16H8V17H7zM8,16H9V17H8zM9,16H10V17H9zM10,16H11V17H10zM12,16H13V17H12zM14,16H15V17H14zM16,16H17V17H16zM17,16H18V17H17zM20,16H21V17H20zM22,16H23V17H22zM25,16H26V17H25zM27,16H28V17H27zM30,16H31V17H30zM31,16H32V17H31zM32,16H33V17H32zM33,16H34V17H33zM34,16H35V17H34zM35,16H36V17H35zM4,17H5V18H4zM5,17H6V18H5zM7,17H8V18H7zM11,17H12V18H11zM13,17H14V18H13zM15,17H16V18H15zM17,17H18V18H17zM18,17H19V18H18zM20,17H21V18H20zM22,17H23V18H22zM23,17H24V18H23zM24,17H25V18H24zM27,17H28V18H27zM28,17H29V18H28zM29,17H30V18H29zM31,17H32V18H31zM34,17H35V18H34zM5,18H6V19H5zM8,18H9V19H8zM10,18H11V19H10zM12,18H13V19H12zM13,18H14V19H13zM14,18H15V19H14zM15,18H16V19H15zM17,18H18V19H17zM19,18H20V19H19zM20,18H21V19H20zM21,18H22V19H21zM24,18H25V19H24zM26,18H27V19H26zM27,18H28V19H27zM28,18H29V19H28zM30,18H31V19H30zM32,18H33V19H32zM34,18H35V19H34zM35,18H36V19H35zM4,19H5V20H4zM6,19H7V20H6zM7,19H8V20H7zM9,19H10V20H9zM10,19H11V20H10zM13,19H14V20H13zM14,19H15V20H14zM16,19H17V20H16zM17,19H18V20H17zM18,19H19V20H18zM20,19H21V20H20zM22,19H23V20H22zM23,19H24V20H23zM25,19H26V20H25zM27,19H28V20H27zM29,19H30V20H29zM30,19H31V20H30zM33,19H34V20H33zM5,20H6V21H5zM7,20H8V21H7zM8,20H9V21H8zM11,20H12V21H11zM12,20H13V21H12zM13,20H14V21H13zM15,20H16V21H15zM16,20H17V21H16zM19,20H20V21H19zM21,20H22V21H21zM23,20H24V21H23zM24,20H25V21H24zM26,20H27V21H26zM28,20H29V21H28zM29,20H30V21H29zM31,20H32V21H31zM32,20H33V21H32zM34,20H35V21H34zM4,21H5V22H4zM5,21H6V22H5zM6,21H7V22H6zM8,21H9V22H8zM9,21H10V22H9zM10,21H11V22H10zM12,21H13V22H12zM13,21H14V22H13zM14,21H15V22H14zM16,21H17V22H16zM17,21H18V22H17zM18,21H19V22H18zM20,21H21V22H20zM21,21H22V22H21zM22,21H23V22H22zM24,21H25V22H24zM25,21H26V22H25zM26,21H27V22H26zM29,21H30V22H29zM31,21H32V22H31zM33,21H34V22H33zM35,21H36V22H35zM4,22H5V23H4zM8,22H9V23H8zM10,22H11V23H10zM11,22H12V23H11zM12,22H13V23H12zM15,22H16V23H15zM17,22H18V23H17zM19,22H20V23H19zM20,22H21V23H20zM21,22H22V23H21zM22,22H23V23H22zM24,22H25V23H24zM26,22H27V23H26zM28,22H29V23H28zM30,22H31V23H30zM31,22H32V23H31zM32,22H33V23H32zM34,22H35V23H34zM5,23H6V24H5zM6,23H7V24H6zM7,23H8V24H7zM9,23H10V24H9zM11,23H12V24H11zM13,23H14V24H13zM15,23H16V24H15zM16,23H17V24H16zM18,23H19V24H18zM20,23H21V24H20zM22,23H23V24H22zM23,23H24V24H23zM25,23H26V24H25zM27,23H28V24H27zM29,23H30V24H29zM31,23H32V24H31zM32,23H33V24H32zM35,23H36V24H35zM4,24H5V25H4zM6,24H7V25H6zM8,24H9V25H8zM10,24H11V25H10zM12,24H13V25H12zM14,24H15V25H14zM16,24H17V25H16zM18,24H19V25H18zM20,24H21V25H20zM22,24H23V25H22zM24,24H25V25H24zM26,24H27V25H26zM28,24H29V25H28zM30,24H31V25H30zM32,24H33V25H32zM34,24H35V25H34zM5,25H6V26H5zM7,25H8V26H7zM9,25H10V26H9zM11,25H12V26H11zM13,25H14V26H13zM15,25H16V26H15zM17,25H18V26H17zM19,25H20V26H19zM21,25H22V26H21zM23,25H24V26H23zM25,25H26V26H25zM27,25H28V26H27zM29,25H30V26H29zM31,25H32V26H31zM33,25H34V26H33zM35,25H36V26H35zM4,26H5V27H4zM6,26H7V27H6zM8,26H9V27H8zM10,26H11V27H10zM12,26H13V27H12zM14,26H15V27H14zM16,26H17V27H16zM18,26H19V27H18zM20,26H21V27H20zM22,26H23V27H22zM24,26H25V27H24zM26,26H27V27H26zM28,26H29V27H28zM30,26H31V27H30zM32,26H33V27H32zM34,26H35V27H34zM12,27H13V28H12zM13,27H14V28H13zM15,27H16V28H15zM17,27H18V28H17zM19,27H20V28H19zM21,27H22V28H21zM23,27H24V28H23zM25,27H26V28H25zM27,27H28V28H27zM29,27H30V28H29zM31,27H32V28H31zM33,27H34V28H33zM35,27H36V28H35zM4,28H5V29H4zM5,28H6V29H5zM6,28H7V29H6zM7,28H8V29H7zM8,28H9V29H8zM9,28H10V29H9zM10,28H11V29H10zM12,28H13V29H12zM14,28H15V29H14zM16,28H17V29H16zM18,28H19V29H18zM20,28H21V29H20zM22,28H23V29H22zM24,28H25V29H24zM26,28H27V29H26zM28,28H29V29H28zM30,28H31V29H30zM32,28H33V29H32zM34,28H35V29H34zM4,29H5V30H4zM10,29H11V30H10zM13,29H14V30H13zM15,29H16V30H15zM17,29H18V30H17zM19,29H20V30H19zM21,29H22V30H21zM23,29H24V30H23zM25,29H26V30H25zM27,29H28V30H27zM29,29H30V30H29zM31,29H32V30H31zM33,29H34V30H33zM35,29H36V30H35zM4,30H5V31H4zM6,30H7V31H6zM7,30H8V31H7zM8,30H9V31H8zM10,30H11V31H10zM12,30H13V31H12zM14,30H15V31H14zM16,30H17V31H16zM18,30H19V31H18zM20,30H21V31H20zM22,30H23V31H22zM24,30H25V31H24zM26,30H27V31H26zM28,30H29V31H28zM30,30H31V31H30zM32,30H33V31H32zM34,30H35V31H34zM4,31H5V32H4zM6,31H7V32H6zM7,31H8V32H7zM8,31H9V32H8zM10,31H11V32H10zM13,31H14V32H13zM15,31H16V32H15zM17,31H18V32H17zM19,31H20V32H19zM21,31H22V32H21zM23,31H24V32H23zM25,31H26V32H25zM27,31H28V32H27zM29,31H30V32H29zM31,31H32V32H31zM33,31H34V32H33zM35,31H36V32H35zM4,32H5V33H4zM6,32H7V33H6zM7,32H8V33H7zM8,32H9V33H8zM10,32H11V33H10zM12,32H13V33H12zM14,32H15V33H14zM16,32H17V33H16zM18,32H19V33H18zM20,32H21V33H20zM22,32H23V33H22zM24,32H25V33H24zM26,32H27V33H26zM28,32H29V33H28zM30,32H31V33H30zM32,32H33V33H32zM34,32H35V33H34zM4,33H5V34H4zM10,33H11V34H10zM13,33H14V34H13zM15,33H16V34H15zM17,33H18V34H17zM19,33H20V34H19zM21,33H22V34H21zM23,33H24V34H23zM25,33H26V34H25zM27,33H28V34H27zM29,33H30V34H29zM31,33H32V34H31zM33,33H34V34H33zM35,33H36V34H35zM4,34H5V35H4zM5,34H6V35H5zM6,34H7V35H6zM7,34H8V35H7zM8,34H9V35H8zM9,34H10V35H9zM10,34H11V35H10zM12,34H13V35H12zM14,34H15V35H14zM16,34H17V35H16zM18,34H19V35H18zM20,34H21V35H20zM22,34H23V35H22zM24,34H25V35H24zM26,34H27V35H26zM28,34H29V35H28zM30,34H31V35H30zM32,34H33V35H32zM34,34H35V35H34z" id="qr-path" fill="#000000" fill-opacity="1" fill-rule="nonzero" stroke="none"/></svg>